# xmcd
#
# Track frame offsets:
#	150
#	24416
#	38373
#	51861
#	63777
#	73865
#	96506
#	109086
#	131046
#	145367
#	156992
#	170495
#	187405
#	201852
#	213440
#	233820
#
# Disc length: 3508 seconds
#
# Revision: 0
# Processed by: cddbd v1.5.2PL0 Copyright (c) Steve Scherf et al.
# Submitted via: audiograbber 1.83.01
#
DISCID=f00db210
DTITLE=Various Artist - CD2 - beginner's guide to blues music
DYEAR=1900
DGENRE=
TTITLE0=Muddy Waters - Mannish Boy
TTITLE1=T-Bone Walker - Call It Stormy Monday
TTITLE2=Ray Charles - Worried Life Blues
TTITLE3=Professor Longhair - Tipitina
TTITLE4=Buddy Guy and Junior Wells - Messing With The Kid
TTITLE5=Joe Turner - In The Evening When The Sun Goes Down
TTITLE6=Floyd Dixon - Hey Bartender
TTITLE7=LaVern Baker - Empty Bed Blues
TTITLE8=Champion Jack Dupree - Junker's Blues
TTITLE9=Guitar Slim - Along About Midnight
TTITLE10=Esther Phillips - Confessin' The Blues
TTITLE11=Freddie King - Play It Cool
TTITLE12=Little Johnny Jones - Chicago Blues
TTITLE13=Rufus Thomas - Walkin' The Dog
TTITLE14=Buddy Guy - Damn Right I've Got The Blues
TTITLE15=Otis Spann - My Love Depends On You
EXTD=
EXTT0=
EXTT1=
EXTT2=
EXTT3=
EXTT4=
EXTT5=
EXTT6=
EXTT7=
EXTT8=
EXTT9=
EXTT10=
EXTT11=
EXTT12=
EXTT13=
EXTT14=
EXTT15=
PLAYORDER=
